<mxfile host="app.diagrams.net" agent="Mozilla/5.0 (Windows NT 10.0; Win64; x64) AppleWebKit/537.36 (KHTML, like Gecko) Chrome/130.0.0.0 Safari/537.36 Edg/130.0.0.0" version="24.8.6">
  <diagram name="第 1 页" id="p9F2KKzPbFmDiRTF9TZ0">
    <mxGraphModel dx="3065" dy="1453" grid="1" gridSize="10" guides="1" tooltips="1" connect="1" arrows="1" fold="1" page="0" pageScale="1" pageWidth="827" pageHeight="1169" math="0" shadow="0">
      <root>
        <mxCell id="0" />
        <mxCell id="1" parent="0" />
        <mxCell id="UeOMpp7CFMgPCrGzTzhy-6" value="&lt;font style=&quot;font-size: 24px;&quot; face=&quot;Lucida Console&quot;&gt;康康&lt;/font&gt;" style="rounded=1;whiteSpace=wrap;html=1;labelBackgroundColor=none;" vertex="1" parent="1">
          <mxGeometry x="-814" y="-23" width="120" height="60" as="geometry" />
        </mxCell>
      </root>
    </mxGraphModel>
  </diagram>
</mxfile>
